<svg xmlns="http://www.w3.org/2000/svg" style="display: none;">
  <defs>
    <!-- Unity Icon -->
    <symbol id="unity" viewBox="0 0 24 24">
      <path d="M12 0L8.5 7h7L12 0zM8.5 17h7L12 24l-3.5-7zM0 12l7-3.5v7L0 12zm24 0l-7 3.5v-7L24 12z"/>
    </symbol>
    
    <!-- C# Icon -->
    <symbol id="csharp" viewBox="0 0 24 24">
      <path d="M12 0C5.373 0 0 5.373 0 12s5.373 12 12 12 12-5.373 12-12S18.627 0 12 0zm-1.5 6h3v1.5h-3V6zm0 3h3v1.5h-3V9zm0 3h3v1.5h-3V12zm0 3h3v1.5h-3V15z"/>
    </symbol>
    
    <!-- Mobile Icon -->
    <symbol id="mobile" viewBox="0 0 24 24">
      <path d="M17 2H7c-1.1 0-2 .9-2 2v16c0 1.1.9 2 2 2h10c1.1 0 2-.9 2-2V4c0-1.1-.9-2-2-2zM7 4h10v13H7V4zm0 15h10v1H7v-1z"/>
    </symbol>
    
    <!-- Game Controller Icon -->
    <symbol id="gamepad" viewBox="0 0 24 24">
      <path d="M15.5 6.5C15.5 5.1 14.4 4 13 4h-2c-1.4 0-2.5 1.1-2.5 2.5S9.6 9 11 9h2c1.4 0 2.5-1.1 2.5-2.5zM12 2C6.48 2 2 6.48 2 12s4.48 10 10 10 10-4.48 10-10S17.52 2 12 2z"/>
    </symbol>
    
    <!-- Analytics Icon -->
    <symbol id="analytics" viewBox="0 0 24 24">
      <path d="M22 7l-10 10L8 13l-6 6 1.41 1.41L8 15.83l4 4 11.41-11.41L22 7z"/>
    </symbol>
    
    <!-- Team Icon -->
    <symbol id="team" viewBox="0 0 24 24">
      <path d="M12 12c2.21 0 4-1.79 4-4s-1.79-4-4-4-4 1.79-4 4 1.79 4 4 4zm0 2c-2.67 0-8 1.34-8 4v2h16v-2c0-2.66-5.33-4-8-4z"/>
    </symbol>
    
    <!-- Code Icon -->
    <symbol id="code" viewBox="0 0 24 24">
      <path d="M9.4 16.6L4.8 12l4.6-4.6L8 6l-6 6 6 6 1.4-1.4zm5.2 0L19.2 12l-4.6-4.6L16 6l6 6-6 6-1.4-1.4z"/>
    </symbol>
    
    <!-- Rocket Icon -->
    <symbol id="rocket" viewBox="0 0 24 24">
      <path d="M12 2C13.1 2 14 2.9 14 4C14 5.1 13.1 6 12 6C10.9 6 10 5.1 10 4C10 2.9 10.9 2 12 2ZM21 9V7L15 1L9 7V9C7.9 9 7 9.9 7 11V16L12 22L17 16V11C17 9.9 16.1 9 15 9Z"/>
    </symbol>
    
    <!-- Success Icon -->
    <symbol id="success" viewBox="0 0 24 24">
      <path d="M12 2C6.48 2 2 6.48 2 12s4.48 10 10 10 10-4.48 10-10S17.52 2 12 2zm-2 15l-5-5 1.41-1.41L10 14.17l7.59-7.59L19 8l-9 9z"/>
    </symbol>
    
    <!-- Error Icon -->
    <symbol id="error" viewBox="0 0 24 24">
      <path d="M12 2C6.48 2 2 6.48 2 12s4.48 10 10 10 10-4.48 10-10S17.52 2 12 2zm1 15h-2v-2h2v2zm0-4h-2V7h2v6z"/>
    </symbol>
  </defs>
</svg>
